<svg width="14" height="14" viewBox="0 0 14 14" fill="none" xmlns="http://www.w3.org/2000/svg">
<path d="M6.86226 14C6.59563 13.9043 6.38963 13.748 6.33119 13.4521C6.31731 13.3812 6.31585 13.3074 6.31585 13.2348C6.31512 11.4446 6.31512 9.65439 6.31512 7.8642C6.31512 7.81014 6.31512 7.75608 6.31512 7.68376C6.25413 7.68376 6.20153 7.68376 6.14893 7.68376C4.38625 7.68376 2.6232 7.67682 0.860522 7.68851C0.435009 7.69179 0.139159 7.55226 0 7.13731C0 7.046 0 6.95504 0 6.86373C0.0938685 6.59525 0.253116 6.39216 0.547871 6.33299C0.618363 6.31875 0.692508 6.31765 0.765193 6.31765C2.55527 6.31692 4.34571 6.31692 6.13579 6.31692C6.18984 6.31692 6.2439 6.31692 6.31549 6.31692C6.31549 6.25555 6.31549 6.20295 6.31549 6.14999C6.31549 4.34154 6.31512 2.53273 6.31585 0.724276C6.31585 0.336725 6.56495 0.0445095 6.92435 0.00432981C7.32649 -0.0405984 7.67749 0.269515 7.68115 0.683731C7.68589 1.22141 7.68261 1.75872 7.68261 2.2964C7.68261 3.57667 7.68261 4.85657 7.68261 6.13684C7.68261 6.1909 7.68261 6.24496 7.68261 6.31692C7.7436 6.31692 7.7962 6.31692 7.84916 6.31692C9.66225 6.31692 11.4753 6.31582 13.2884 6.31765C13.8016 6.31802 14.138 6.80054 13.9448 7.25895C13.8264 7.53911 13.6051 7.68047 13.3027 7.68303C12.8063 7.68705 12.3096 7.68412 11.8132 7.68412C10.4968 7.68412 9.18012 7.68412 7.86377 7.68412C7.80971 7.68412 7.75566 7.68412 7.68334 7.68412C7.68334 7.74476 7.68334 7.79772 7.68334 7.85032C7.68334 9.61348 7.6764 11.3763 7.68809 13.1394C7.69101 13.565 7.55148 13.8612 7.13656 14C7.04452 14 6.95357 14 6.86226 14Z" fill="#5B93FF"/>
</svg>
