<svg width="20" height="16" viewBox="0 0 20 16" fill="none" xmlns="http://www.w3.org/2000/svg">
<path d="M9.98712 15.7167H3.05694C1.82589 15.7162 1 14.8951 1 13.6694C1 9.89363 1 6.118 1 2.34256C1 1.11258 1.82213 0.289371 3.04997 0.288834C4.45597 0.288834 5.86196 0.30064 7.26796 0.283468C7.94789 0.275418 8.47111 0.548568 8.8854 1.06052C9.31471 1.59072 9.73812 2.12611 10.1556 2.66669C10.1987 2.73144 10.258 2.78379 10.3275 2.81853C10.3971 2.85328 10.4746 2.86919 10.5522 2.86471C12.6821 2.85934 14.8115 2.85934 16.9382 2.85934C18.1827 2.85934 19 3.67665 19 4.92112C19 7.83328 19 10.7455 19 13.6576C19 14.9005 18.1811 15.7156 16.935 15.7156L9.98712 15.7167ZM10.0005 14.4288H16.9715C17.4829 14.4288 17.7164 14.1927 17.7164 13.6775V4.89858C17.7164 4.37696 17.4797 4.14352 16.9527 4.14352C14.6759 4.14603 12.3993 4.14728 10.1229 4.14728C9.98622 4.15384 9.85008 4.12598 9.72698 4.06625C9.60387 4.00652 9.49772 3.91685 9.41828 3.80544C8.93155 3.17489 8.42711 2.55775 7.94091 1.9272C7.74504 1.67283 7.51911 1.56228 7.18961 1.56658C5.81045 1.58267 4.43074 1.57301 3.05104 1.57355C2.51977 1.57355 2.28847 1.80162 2.28847 2.32485C2.28847 6.10816 2.28847 9.8913 2.28847 13.6743C2.28847 14.1986 2.5203 14.4256 3.05104 14.4256L10.0005 14.4288Z" fill="#1F4173" stroke="#1F4173" stroke-width="0.5"/>
</svg>
