<svg width="12" height="12" viewBox="0 0 12 12" fill="none" xmlns="http://www.w3.org/2000/svg">
<path d="M0 11.3178C0.0102355 11.3464 0.0233953 11.3745 0.0299753 11.4038C0.151704 11.941 0.795076 12.1793 1.2352 11.8481C1.29405 11.8038 1.34706 11.7504 1.3997 11.698C2.88969 10.2075 4.37968 8.71626 5.86857 7.22463C5.90951 7.18365 5.93912 7.13132 5.98153 7.07423C6.05025 7.13827 6.09339 7.17596 6.1336 7.21622C7.63711 8.72101 9.14173 10.2251 10.6434 11.7317C10.8737 11.9626 11.1391 12.0552 11.4531 11.9666C11.9583 11.8243 12.1648 11.2051 11.8519 10.7828C11.8081 10.7235 11.7551 10.6701 11.7028 10.6177C10.2051 9.11807 8.70708 7.61876 7.20832 6.11982C7.17286 6.08433 7.12863 6.05688 7.08842 6.02577C7.08257 6.00638 7.07672 5.98662 7.07124 5.96722C7.11547 5.9416 7.16738 5.92367 7.20211 5.88854C8.70964 4.38228 10.2157 2.87419 11.7229 1.3672C11.853 1.23729 11.9539 1.0942 11.9854 0.907928C12.0508 0.518555 11.8351 0.157725 11.4619 0.0354967C11.4334 0.0259819 11.406 0.0120764 11.3782 0.000366211C11.2842 0.000366211 11.1906 0.000366211 11.0967 0.000366211C10.8342 0.0680676 10.6588 0.256898 10.476 0.439875C9.02146 1.89856 7.564 3.35432 6.11093 4.81447C6.02649 4.89937 5.98445 4.89754 5.90111 4.81374C4.44511 3.35103 2.98473 1.89234 1.52764 0.430725C1.34779 0.250311 1.17342 0.0666027 0.915342 0C0.821395 0 0.727814 0 0.633867 0C0.606451 0.0120764 0.5794 0.0256166 0.551252 0.0358639C0.270509 0.136134 0.0917536 0.326063 0.0270509 0.619924C0.0222987 0.641515 0.0091388 0.66091 0 0.681403C0 0.736296 0 0.790824 0 0.845716C0.053005 1.15604 0.272702 1.35183 0.480335 1.55932C1.92427 3.00154 3.366 4.44632 4.80993 5.88891C4.84503 5.92367 4.8973 5.94124 4.94153 5.96686C4.93715 5.98845 4.93313 6.01004 4.92874 6.03163C4.88707 6.0609 4.83954 6.08469 4.80408 6.12019C3.36344 7.56021 1.92427 9.00206 0.48326 10.4417C0.275626 10.6492 0.0555639 10.8443 0 11.1535C0 11.2084 0 11.2629 0 11.3178Z" fill="#D1D6DA"/>
</svg>
