<svg width="20" height="20" viewBox="0 0 20 20" fill="none" xmlns="http://www.w3.org/2000/svg">
<path d="M17.0938 11.6343V11.8767C17.0938 13.568 17.0938 15.2595 17.0938 16.9512C17.0938 18.1689 16.2662 18.9975 15.0525 18.9986C14.1609 18.9986 13.2693 18.9986 12.3777 18.9986C11.947 18.9986 11.7473 18.7962 11.747 18.3593C11.747 17.0148 11.747 15.6704 11.747 14.326C11.747 13.6892 11.3919 13.3354 10.7551 13.3354C10.2506 13.3354 9.746 13.3336 9.24178 13.3354C8.64993 13.3382 8.28775 13.7005 8.28528 14.2906C8.28387 15.6414 8.28387 16.9922 8.28528 18.343C8.28528 18.8029 8.09165 19 7.6369 19C6.74506 19 5.85346 19 4.96209 19C3.77132 18.9982 2.94061 18.1654 2.9392 16.9699C2.93779 15.2717 2.93779 13.5744 2.9392 11.8781V11.6368H2.71023C1.98694 11.6336 1.38272 11.2511 1.13326 10.6076C0.866843 9.92086 1.00217 9.29853 1.51876 8.7781C2.62508 7.6601 3.74023 6.54918 4.85185 5.43755C6.15427 4.13345 7.47683 2.84881 8.75063 1.51747C9.40962 0.827923 10.6064 0.828985 11.2767 1.51181C13.6658 3.94523 16.0743 6.35919 18.5022 8.75368C19.253 9.49666 19.1534 10.8786 18.2107 11.4072C17.9665 11.5495 17.6904 11.6278 17.4079 11.6347C17.3097 11.6354 17.2114 11.6343 17.0938 11.6343ZM12.8017 17.9414H15.0302C15.6917 17.9414 16.0369 17.5947 16.0369 16.931C16.0369 15.0162 16.0369 13.1015 16.0369 11.1867C16.0369 10.7894 16.2489 10.58 16.6461 10.5782C16.8934 10.5782 17.139 10.5818 17.3853 10.5761C17.5124 10.5744 17.6356 10.5314 17.7361 10.4533C17.8365 10.3753 17.9089 10.2666 17.9421 10.1438C18.0294 9.84833 17.8877 9.6403 17.6899 9.44253C15.3027 7.05628 12.9177 4.66863 10.535 2.27955C10.1693 1.91373 9.86155 1.9155 9.49265 2.28451C7.36906 4.41083 5.24488 6.53726 3.12011 8.66382C2.83108 8.95429 2.53922 9.24334 2.25089 9.53628C2.05902 9.73087 2.00355 9.96296 2.11273 10.2152C2.21873 10.4586 2.41767 10.5782 2.68515 10.5779H3.28336C3.8162 10.5779 3.99358 10.753 3.99358 11.2801C3.99358 13.1655 4.00594 15.0513 3.98651 16.9363C3.9798 17.5784 4.44374 17.9659 4.98788 17.9467C5.66736 17.923 6.34861 17.9411 7.02915 17.9411H7.22808V17.7076C7.22808 16.5153 7.21819 15.323 7.23585 14.1307C7.24999 13.1924 8.00225 12.3684 8.93791 12.3055C9.65519 12.2573 10.3788 12.2959 11.0997 12.298C11.1582 12.3007 11.2162 12.3097 11.2728 12.3249C12.188 12.5344 12.795 13.2876 12.8007 14.2425C12.8077 15.3994 12.8007 16.5567 12.8007 17.7136L12.8017 17.9414Z" fill="#1F4173" stroke="#1F4173" stroke-width="0.7"/>
</svg>
