<svg width="20" height="20" viewBox="0 0 20 20" fill="none" xmlns="http://www.w3.org/2000/svg">
<path d="M5.31415 2.6812C5.82494 2.69021 6.22856 2.85146 6.55907 3.17696C6.75938 3.37727 6.98122 3.47292 7.25164 3.35524C7.51054 3.24206 7.59767 3.02423 7.60218 2.7483C7.60562 2.28652 7.79158 1.84484 8.11947 1.51967C8.44737 1.19449 8.89058 1.01222 9.35238 1.01263C9.87017 1.00812 10.3945 0.979577 10.9048 1.04468C11.7831 1.15585 12.3775 1.87696 12.3976 2.76683C12.4056 3.10285 12.5513 3.31768 12.8292 3.38929C13.0656 3.45139 13.2509 3.35975 13.4221 3.199C13.97 2.68521 14.6065 2.54449 15.3071 2.8119C15.5307 2.9062 15.7357 3.03966 15.9125 3.20601C16.2245 3.48444 16.5134 3.78941 16.8044 4.08987C17.5029 4.80998 17.5105 5.85559 16.8189 6.58322C16.6291 6.78352 16.5349 6.99635 16.6496 7.26076C16.7643 7.52517 16.9786 7.6083 17.2546 7.6113C17.7161 7.61446 18.1578 7.79956 18.4837 8.1264C18.8096 8.45324 18.9934 8.89544 18.9952 9.35699C19.0016 9.78832 19.0016 10.2195 18.9952 10.6505C18.9827 11.631 18.2276 12.3857 17.2425 12.4077C16.899 12.4152 16.7032 12.5504 16.6216 12.8379C16.5545 13.0757 16.6481 13.2595 16.8094 13.4293C17.3442 13.9936 17.4739 14.7458 17.1599 15.4203C16.9681 15.8325 15.8118 16.9853 15.4002 17.173C14.7312 17.481 13.9835 17.3513 13.4252 16.8225C13.2609 16.6673 13.0831 16.5721 12.8523 16.6222C12.5618 16.6883 12.4056 16.9051 12.3976 17.2457C12.378 18.0639 11.8622 18.7324 11.0886 18.9403C11.0238 18.9621 10.9564 18.9754 10.8882 18.9798C10.2838 18.9798 9.67237 19.0299 9.07545 18.9613C8.20361 18.8581 7.6147 18.1295 7.60168 17.2467C7.59767 16.9782 7.51004 16.7684 7.25715 16.6562C6.99574 16.5406 6.77891 16.6217 6.5766 16.812C5.82544 17.5196 4.79134 17.5061 4.05621 16.7849C3.77478 16.5125 3.49601 16.2361 3.21992 15.9557C2.4898 15.2135 2.47728 14.1769 3.19188 13.4218C3.37616 13.227 3.45979 13.0131 3.34812 12.7577C3.23645 12.5023 3.03313 12.4102 2.76272 12.4072C1.75867 12.3897 1.00951 11.6275 1 10.6219C1 10.216 1 9.80986 1 9.40356C1.00651 8.3865 1.75116 7.63133 2.77073 7.6093C3.10474 7.60229 3.32158 7.44004 3.38317 7.14308C3.43025 6.91923 3.3331 6.74697 3.18587 6.58722C2.66607 6.03337 2.53136 5.39088 2.80428 4.68429C2.89386 4.47189 3.02091 4.27733 3.17936 4.1099C3.46881 3.79091 3.78029 3.49395 4.09127 3.19299C4.44481 2.85046 4.86796 2.67719 5.31415 2.6812ZM13.026 15.4123C13.4786 15.4279 13.9082 15.6149 14.2279 15.9356C14.5123 16.2116 14.8208 16.2086 15.1017 15.9326C15.3646 15.6742 15.6245 15.4128 15.8849 15.1514C16.2074 14.8279 16.2115 14.545 15.8955 14.2085C15.5827 13.8861 15.4059 13.4558 15.4017 13.0066C15.3985 12.7734 15.4414 12.5418 15.5277 12.3251C15.6141 12.1085 15.7424 11.911 15.9052 11.7439C16.068 11.5768 16.2621 11.4435 16.4764 11.3515C16.6908 11.2595 16.9212 11.2107 17.1544 11.2078C17.5841 11.1998 17.7944 10.9865 17.7954 10.5568C17.7954 10.1758 17.7954 9.79467 17.7954 9.41358C17.7929 9.04501 17.567 8.81716 17.204 8.80765C16.4233 8.78711 15.8464 8.43407 15.5444 7.71146C15.2425 6.98884 15.3992 6.34184 15.9265 5.77647C16.1954 5.48853 16.1964 5.18105 15.92 4.90062C15.6616 4.63772 15.3997 4.37832 15.1388 4.11842C14.8153 3.79592 14.5339 3.79241 14.1968 4.1094C13.879 4.41721 13.4564 4.59311 13.014 4.60166C12.7793 4.60738 12.5458 4.56641 12.327 4.48114C12.1083 4.39587 11.9086 4.26799 11.7397 4.10493C11.5708 3.94187 11.4359 3.74687 11.343 3.53127C11.25 3.31566 11.2008 3.08374 11.1982 2.84896C11.1897 2.4193 10.9774 2.20997 10.5472 2.20897C10.1661 2.20897 9.78504 2.20897 9.40396 2.20897C9.03539 2.21148 8.81204 2.43632 8.79702 2.80088C8.79425 2.9568 8.77546 3.11202 8.74093 3.2641C8.40191 4.58664 6.79193 5.04284 5.79289 4.10289C5.46689 3.79542 5.18044 3.79792 4.86496 4.11191C4.61691 4.35895 4.36969 4.60634 4.12331 4.85405C3.7878 5.19307 3.78129 5.4685 4.10479 5.81002C4.41693 6.13261 4.59285 6.56301 4.59604 7.01188C4.61257 7.9989 3.82786 8.78812 2.82131 8.80715C2.4262 8.81466 2.20185 9.0375 2.20185 9.4256C2.20185 9.82622 2.19835 10.2268 2.20185 10.6275C2.20486 10.9705 2.43621 11.1963 2.77724 11.2129C2.93927 11.2154 3.10064 11.234 3.25898 11.2684C4.58202 11.6085 5.03572 13.2144 4.09577 14.217C3.7888 14.544 3.7913 14.8309 4.10529 15.1459C4.36519 15.4068 4.62509 15.6682 4.88699 15.9271C5.17494 16.2116 5.4779 16.2106 5.77636 15.9331C6.34274 15.4063 6.99624 15.2556 7.71185 15.5566C8.42745 15.8575 8.77699 16.4264 8.79902 17.2011C8.80954 17.5802 9.03188 17.8055 9.40946 17.8075C9.77803 17.8075 10.1466 17.8075 10.5152 17.8075C10.9869 17.8075 11.1882 17.6117 11.1992 17.1435C11.2223 16.1895 12.013 15.4138 13.026 15.4123Z" fill="#1F4173" stroke="#1F4173" stroke-width="0.5"/>
</svg>
